# xmcd CD database file
#
# Track frame offsets:
#	150
#	26557
#	63023
#	101106
#	127930
#	150137
#	173858
#	206741
#
# Disc length: 3034 seconds
#
# Revision: 0
# Processed by: cddbd v1.5.2PL0 Copyright (c) Steve Scherf et al.
# Submitted via: CDex 1.51
#
DISCID=5c0bd808
DTITLE=The George Turner Trio - SLIP DOn't fall
DYEAR=1999
DGENRE=Jazz
TTITLE0=Threshold
TTITLE1=Second By Second
TTITLE2=SLIP DOn't fall
TTITLE3=Asia Minor
TTITLE4=Mooments Notice
TTITLE5=Nyarlathatotep
TTITLE6=Man From Tanganyika
TTITLE7=Wendy
EXTD=YEAR: 1999
EXTT0=
EXTT1=
EXTT2=
EXTT3=
EXTT4=
EXTT5=
EXTT6=
EXTT7=
PLAYORDER=
